<?xml version="1.0" standalone="no"?>
<!DOCTYPE svg PUBLIC "-//W3C//DTD SVG 20010904//EN"
 "http://www.w3.org/TR/2001/REC-SVG-20010904/DTD/svg10.dtd">
<svg version="1.0" xmlns="http://www.w3.org/2000/svg"
 width="2431.000000pt" height="1173.000000pt" viewBox="0 0 2431.000000 1173.000000"
 preserveAspectRatio="xMidYMid meet">
<metadata>
Created by potrace 1.13, written by Peter Selinger 2001-2015
</metadata>
<g transform="translate(0.000000,1173.000000) scale(0.100000,-0.100000)"
fill="#000000" stroke="none">
<path d="M6205 8796 c-3399 -1607 -6179 -2926 -6178 -2930 1 -5 2784 -1324
6185 -2931 l6183 -2923 5 1447 5 1446 5948 3 5947 2 0 2960 0 2960 -5950 0
-5950 0 0 1445 c0 795 -3 1445 -7 1444 -5 0 -2789 -1316 -6188 -2923z m11855
-266 l5950 0 0 -2665 0 -2665 -5950 0 -5950 0 0 -1361 c0 -1166 -2 -1360 -14
-1357 -8 2 -2575 1213 -5704 2693 -4395 2077 -5687 2692 -5674 2699 9 6 2575
1219 5702 2697 l5685 2688 3 -1365 2 -1364 5950 0z"/>
</g>
</svg>
