<?xml version="1.0" standalone="no"?>
<!DOCTYPE svg PUBLIC "-//W3C//DTD SVG 20010904//EN"
 "http://www.w3.org/TR/2001/REC-SVG-20010904/DTD/svg10.dtd">
<svg version="1.0" xmlns="http://www.w3.org/2000/svg"
 width="2366.000000pt" height="1554.000000pt" viewBox="0 0 2366.000000 1554.000000"
 preserveAspectRatio="xMidYMid meet">
<metadata>
Created by potrace 1.13, written by Peter Selinger 2001-2015
</metadata>
<g transform="translate(0.000000,1554.000000) scale(0.100000,-0.100000)"
fill="#000000" stroke="none">
<path d="M5235 15515 c-253 -55 -460 -241 -554 -498 l-26 -72 -5 -715 -5 -715
-700 -5 -700 -5 -80 -28 c-119 -42 -210 -100 -300 -191 -87 -88 -143 -181
-186 -311 l-24 -70 -3 -872 -3 -872 -1022 -3 -1022 -3 -70 -23 c-260 -88 -438
-273 -512 -532 -17 -63 -18 -240 -18 -5020 0 -4740 1 -4958 18 -5018 75 -266
264 -456 533 -539 57 -17 423 -18 8909 -20 9594 -3 8933 -7 9073 50 101 40
171 87 253 167 86 85 145 178 186 295 l28 80 3 878 3 877 964 0 c635 0 990 4
1041 11 253 35 466 192 574 424 70 150 70 144 70 904 l0 681 653 0 c701 1 736
3 869 53 245 93 430 327 468 593 8 58 10 1405 8 4989 -3 4691 -4 4913 -21
4970 -77 257 -255 439 -512 526 l-70 24 -8880 2 c-7290 1 -8891 -1 -8940 -12z
m17756 -285 c140 -26 270 -127 333 -260 l31 -65 3 -4935 2 -4935 -21 -62 c-42
-126 -148 -233 -276 -280 l-64 -23 -669 0 -670 0 0 4085 c0 3698 -2 4093 -16
4163 -54 260 -239 468 -499 559 l-80 28 -4912 3 -4913 2 0 165 0 165 -1170 0
-1170 0 -2 -162 -3 -163 -297 -3 -298 -2 0 160 0 160 -1095 0 -1094 0 -3 -157
-3 -158 -582 -3 -583 -2 0 667 c0 721 0 714 55 823 53 105 188 206 305 229 65
13 17623 14 17691 1z m-11871 -1610 l0 -110 -1055 0 -1055 0 0 103 c0 57 3
107 7 110 3 4 478 7 1055 7 l1048 0 0 -110z m-2940 -10 l0 -100 -980 0 -980 0
0 100 0 100 980 0 980 0 0 -100z m12890 -417 c126 -52 222 -148 272 -271 l23
-57 3 -4895 c2 -3618 0 -4911 -8 -4955 -31 -161 -153 -297 -311 -346 -58 -18
-107 -19 -1050 -19 l-989 0 -2 3957 -3 3958 -28 80 c-42 119 -100 210 -191
300 -88 87 -181 143 -311 187 l-70 23 -4637 3 -4638 2 0 465 0 465 -1170 0
-1170 0 0 -465 0 -465 -300 0 -300 0 0 460 0 460 -1095 0 -1095 0 0 -460 0
-460 -530 0 -530 0 0 808 c0 517 4 830 11 872 27 171 161 319 330 364 47 13
1193 14 8894 13 l8840 -2 55 -22z m-12050 -1628 l0 -405 -140 0 -140 0 0 90 0
90 -780 0 -780 0 0 -90 0 -90 -140 0 -140 0 0 405 0 405 1060 0 1060 0 0 -405z
m-2940 -5 l0 -400 -100 0 -100 0 0 100 0 100 -780 0 -780 0 0 -100 0 -100
-105 0 -105 0 0 400 0 400 985 0 985 0 0 -400z m12271 -700 c165 -31 311 -168
355 -334 12 -43 14 -831 14 -4941 0 -4362 -2 -4897 -15 -4950 -38 -145 -140
-256 -290 -316 l-60 -24 -8790 -3 c-6015 -2 -8815 1 -8870 8 -204 26 -362 179
-394 380 -15 91 -15 9709 0 9800 29 183 172 338 349 376 72 16 17617 20 17701
4z"/>
<path d="M7190 11610 l0 -110 780 0 780 0 0 110 0 110 -780 0 -780 0 0 -110z"/>
<path d="M4320 11590 l0 -110 785 0 786 0 -3 108 -3 107 -782 3 -783 2 0 -110z"/>
<path d="M4250 8245 l0 -1225 1175 0 1175 0 0 1225 0 1225 -1175 0 -1175 0 0
-1225z m2228 -2 l2 -1113 -1055 0 -1055 0 0 1115 0 1115 1053 -2 1052 -3 3
-1112z"/>
<path d="M4650 8990 l0 -110 785 0 785 0 0 110 0 110 -785 0 -785 0 0 -110z"/>
<path d="M4640 8620 l0 -110 785 0 785 0 0 110 0 110 -785 0 -785 0 0 -110z"/>
<path d="M1460 8345 l0 -1115 766 0 c762 0 766 0 760 -20 -3 -11 -9 -29 -12
-40 -5 -17 -2 -20 24 -20 26 0 74 45 383 361 279 284 355 367 357 390 4 34 3
34 -45 14 -19 -8 -37 -15 -39 -15 -2 0 -4 351 -4 780 l0 780 -1095 0 -1095 0
0 -1115z m2080 251 l0 -745 -57 -12 c-66 -13 -194 -7 -318 16 -44 8 -98 18
-119 21 l-39 7 6 -34 c3 -19 13 -77 23 -129 18 -101 24 -281 11 -342 l-8 -38
-729 0 -730 0 0 1000 0 1000 980 0 980 0 0 -744z m-232 -872 c56 -4 101 -11
100 -15 -3 -7 -228 -239 -233 -239 -1 0 -5 48 -9 108 -3 59 -9 120 -12 136 -7
28 -6 29 22 23 16 -4 75 -10 132 -13z"/>
<path d="M1780 8970 l0 -110 785 0 785 0 0 110 0 110 -785 0 -785 0 0 -110z"/>
<path d="M1780 8630 l0 -110 785 0 785 0 0 110 0 110 -785 0 -785 0 0 -110z"/>
</g>
</svg>
