<?xml version="1.0" standalone="no"?>
<!DOCTYPE svg PUBLIC "-//W3C//DTD SVG 20010904//EN"
 "http://www.w3.org/TR/2001/REC-SVG-20010904/DTD/svg10.dtd">
<svg version="1.0" xmlns="http://www.w3.org/2000/svg"
 width="2163.000000pt" height="2146.000000pt" viewBox="0 0 2163.000000 2146.000000"
 preserveAspectRatio="xMidYMid meet">
<metadata>
Created by potrace 1.13, written by Peter Selinger 2001-2015
</metadata>
<g transform="translate(0.000000,2146.000000) scale(0.100000,-0.100000)"
fill="#000000" stroke="none">
<path d="M10423 21449 c-2602 -91 -5059 -1101 -6973 -2864 -215 -198 -575
-565 -762 -777 -840 -955 -1487 -2006 -1943 -3163 -714 -1807 -918 -3762 -595
-5695 332 -1985 1232 -3843 2603 -5370 171 -190 624 -642 807 -805 753 -669
1506 -1181 2380 -1619 628 -314 1187 -534 1835 -721 819 -236 1573 -363 2465
-415 229 -14 903 -13 1150 0 2174 119 4212 859 5945 2159 800 600 1546 1346
2146 2146 1036 1380 1710 2951 1994 4645 143 851 181 1776 109 2645 -149 1809
-753 3534 -1765 5045 -446 666 -937 1247 -1544 1827 -1399 1336 -3178 2283
-5084 2708 -910 202 -1834 287 -2768 254z m947 -359 c1032 -57 2034 -257 2983
-596 2383 -852 4386 -2547 5615 -4750 697 -1250 1125 -2631 1256 -4054 33
-352 40 -528 40 -960 0 -531 -18 -835 -80 -1319 -325 -2576 -1645 -4965 -3671
-6643 -1638 -1357 -3627 -2176 -5748 -2367 -381 -35 -650 -44 -1104 -38 -539
7 -906 35 -1401 108 -2066 303 -3987 1217 -5540 2637 -468 427 -913 918 -1299
1432 -995 1327 -1647 2839 -1921 4454 -103 607 -143 1097 -143 1736 0 628 40
1124 138 1712 316 1889 1147 3633 2430 5103 175 200 701 730 896 903 1038 916
2188 1597 3474 2055 926 329 1924 529 2930 586 209 12 933 12 1145 1z"/>
<path d="M8826 13022 l-398 -3827 -43 -70 c-179 -291 -200 -672 -55 -982 53
-114 102 -185 193 -280 237 -247 536 -344 892 -288 55 9 1824 200 3930 426
2107 225 3837 411 3845 413 8 2 4 4 -10 5 -14 1 -1627 174 -3584 384 -2826
304 -3561 386 -3567 397 -4 8 -186 1732 -404 3830 -218 2098 -397 3816 -398
3817 -1 1 -181 -1721 -401 -3825z"/>
</g>
</svg>
