<?xml version="1.0" standalone="no"?>
<!DOCTYPE svg PUBLIC "-//W3C//DTD SVG 20010904//EN"
 "http://www.w3.org/TR/2001/REC-SVG-20010904/DTD/svg10.dtd">
<svg version="1.0" xmlns="http://www.w3.org/2000/svg"
 width="1749.000000pt" height="2249.000000pt" viewBox="0 0 1749.000000 2249.000000"
 preserveAspectRatio="xMidYMid meet">
<metadata>
Created by potrace 1.13, written by Peter Selinger 2001-2015
</metadata>
<g transform="translate(0.000000,2249.000000) scale(0.100000,-0.100000)"
fill="#000000" stroke="none">
<path d="M8685 22124 c-669 -54 -1325 -261 -1895 -599 -344 -203 -637 -434
-932 -732 -390 -393 -676 -796 -924 -1298 -296 -602 -463 -1209 -525 -1910
-16 -182 -16 -681 0 -860 49 -552 165 -1049 357 -1540 31 -77 111 -252 179
-390 325 -656 767 -1209 1319 -1651 1277 -1024 2958 -1264 4437 -634 1423 606
2479 1948 2808 3565 119 586 137 1241 51 1838 -124 855 -451 1660 -953 2340
-145 197 -275 347 -476 548 -265 264 -449 416 -731 601 -589 388 -1208 616
-1910 704 -120 15 -684 27 -805 18z"/>
<path d="M5760 13041 c-14 -17 -113 -128 -221 -248 -1867 -2078 -3785 -5155
-4809 -7713 -362 -904 -592 -1692 -684 -2340 -68 -481 -58 -841 31 -1144 32
-105 12 -89 288 -226 658 -324 1457 -586 2458 -806 2795 -613 6819 -737 10187
-313 2216 278 3787 758 4410 1345 l70 66 0 102 c-1 934 -282 2131 -816 3482
-873 2211 -2403 4785 -4093 6889 -157 196 -475 577 -576 691 l-30 33 -105 -80
c-128 -99 -376 -264 -525 -350 -147 -84 -462 -236 -610 -294 -1035 -408 -2154
-439 -3200 -90 -607 203 -1174 530 -1670 964 -38 33 -72 61 -75 61 -3 0 -16
-13 -30 -29z"/>
</g>
</svg>
