<?xml version="1.0" encoding="UTF-8"?>
<!DOCTYPE svg PUBLIC "-//W3C//DTD SVG 1.1//EN" "http://www.w3.org/Graphics/SVG/1.1/DTD/svg11.dtd">
<!-- Creator: CorelDRAW -->
<svg xmlns="http://www.w3.org/2000/svg" xml:space="preserve" width="210mm" height="297mm" style="shape-rendering:geometricPrecision; text-rendering:geometricPrecision; image-rendering:optimizeQuality; fill-rule:evenodd; clip-rule:evenodd"
viewBox="0 0 210 297"
 xmlns:xlink="http://www.w3.org/1999/xlink">
 <defs>
  <style type="text/css">
   <![CDATA[
    .str0 {stroke:#373435;stroke-width:0.2}
    .fil0 {fill:#373435;fill-rule:nonzero}
   ]]>
  </style>
 </defs>
 <g id="Layer_x0020_1">
  <metadata id="CorelCorpID_0Corel-Layer"/>
  <path class="fil0 str0" d="M105.677 119.971l-13.4276 0 0 6.5484 -26.8553 -13.0969 26.8553 -13.0969 0 6.5484 13.4276 0 0 13.097zm8.0566 0l-5.371 0 0 -13.097 5.371 0 0 13.097zm5.371 0l-2.6855 0 0 -13.097 2.6855 0 0 13.097zm-20.1414 0m-6.7138 3.2742m-13.4276 -3.2742m0 -13.0969m13.4276 -3.2743m6.7138 3.2742m6.7138 6.5485m5.3711 6.5485m-2.6855 -6.5485m2.6855 -6.5485m2.6855 6.5485m4.0283 6.5485m-1.3428 -6.5485m1.3428 -6.5485m1.3427 6.5485"/>
 </g>
</svg>
