<?xml version="1.0" standalone="no"?>
<!DOCTYPE svg PUBLIC "-//W3C//DTD SVG 20010904//EN"
 "http://www.w3.org/TR/2001/REC-SVG-20010904/DTD/svg10.dtd">
<svg version="1.0" xmlns="http://www.w3.org/2000/svg"
 width="1946.000000pt" height="2219.000000pt" viewBox="0 0 1946.000000 2219.000000"
 preserveAspectRatio="xMidYMid meet">
<metadata>
Created by potrace 1.13, written by Peter Selinger 2001-2015
</metadata>
<g transform="translate(0.000000,2219.000000) scale(0.100000,-0.100000)"
fill="#000000" stroke="none">
<path d="M260 22168 c0 -7 -56 -1396 -126 -3086 -69 -1691 -123 -3077 -119
-3080 6 -7 470 -51 541 -52 l40 0 23 133 c357 2090 955 3419 1896 4213 738
623 1810 916 3800 1039 593 36 1060 55 1388 55 l217 0 -3 -8517 c-3 -6367 -6
-8570 -15 -8723 -62 -1075 -144 -1554 -347 -2011 -235 -531 -659 -972 -1129
-1176 -306 -133 -724 -220 -1191 -248 -55 -3 -119 -8 -142 -11 l-43 -5 0 -325
0 -324 3930 0 3930 0 0 -25 0 -25 2105 0 2105 0 0 224 0 224 -67 6 c-292 25
-383 40 -503 78 -250 79 -451 271 -566 537 -67 153 -104 343 -136 691 -8 91
-12 1172 -15 3988 l-4 3862 163 0 c318 0 795 -32 1063 -71 341 -49 567 -115
810 -236 622 -311 935 -846 1135 -1943 l37 -205 39 3 c118 8 368 32 371 36 5
5 -102 2708 -113 2853 l-6 83 -4074 0 -4074 0 0 5630 0 5630 308 0 c823 0
1834 -59 2489 -145 824 -108 1351 -254 1921 -530 1203 -585 1898 -1503 2368
-3128 128 -443 253 -1011 344 -1564 l12 -73 41 1 c69 1 535 44 541 50 3 3 -51
1375 -119 3050 -69 1674 -125 3063 -125 3087 l0 42 -9350 0 c-7473 0 -9350 -3
-9350 -12z m13937 -16450 c-3 -4021 -3 -3959 -43 -4248 -43 -304 -133 -520
-287 -686 l-64 -68 -164 17 c-818 87 -1292 308 -1717 802 -431 502 -625 1115
-702 2225 -30 434 -33 603 -37 2281 l-4 1745 21 85 c32 126 117 379 167 498
122 293 294 550 484 724 348 320 836 449 1914 506 83 4 214 9 293 10 l142 1
-3 -3892z"/>
</g>
</svg>
