<?xml version="1.0" standalone="no"?>
<!DOCTYPE svg PUBLIC "-//W3C//DTD SVG 20010904//EN"
 "http://www.w3.org/TR/2001/REC-SVG-20010904/DTD/svg10.dtd">
<svg version="1.0" xmlns="http://www.w3.org/2000/svg"
 width="1930.000000pt" height="2264.000000pt" viewBox="0 0 1930.000000 2264.000000"
 preserveAspectRatio="xMidYMid meet">
<metadata>
Created by potrace 1.13, written by Peter Selinger 2001-2015
</metadata>
<g transform="translate(0.000000,2264.000000) scale(0.100000,-0.100000)"
fill="#000000" stroke="none">
<path d="M2 11633 l3 -11008 6902 0 c6660 0 6902 -1 6905 -18 2 -12 801 935
2329 2762 l2326 2781 -1 8242 -1 8243 -9233 3 -9232 2 2 -11007z m18168 2683
l0 -8024 -127 -52 c-535 -221 -1063 -313 -1698 -296 -659 16 -1375 128 -2438
377 -165 39 -301 68 -305 65 -3 -3 5 -65 17 -138 378 -2260 440 -3469 235
-4598 -29 -162 -105 -471 -153 -627 l-32 -103 -6684 0 -6685 0 0 10710 0
10710 8935 0 8935 0 0 -8024z m-4050 -8345 c1582 -354 2591 -411 3455 -195 55
14 131 35 168 46 37 11 70 18 72 16 4 -4 -3641 -4366 -3690 -4417 l-24 -24 9
39 c47 210 99 560 126 854 21 238 30 862 15 1165 -32 665 -115 1409 -257 2308
-38 246 -39 248 -21 242 6 -2 73 -17 147 -34z"/>
<path d="M2150 19130 c0 -38 -160 -3945 -165 -4026 l-6 -100 238 -21 c131 -11
239 -20 239 -19 1 0 22 114 47 251 212 1165 532 1926 1022 2434 182 188 349
315 554 420 327 168 792 287 1406 360 386 46 1123 91 1493 91 l172 0 0 -5427
c0 -5227 -3 -5709 -30 -6078 -55 -736 -197 -1132 -525 -1460 -286 -288 -588
-397 -1217 -440 l-98 -7 0 -259 0 -259 2561 0 c2552 0 2561 0 2566 -20 5 -20
14 -20 1429 -20 l1424 0 -2 198 -3 197 -115 7 c-286 19 -433 81 -545 231 -104
137 -143 272 -165 567 -6 86 -10 1041 -10 2608 l0 2472 88 0 c229 0 616 -35
797 -71 264 -53 497 -171 659 -335 117 -118 222 -299 295 -506 41 -117 106
-382 135 -551 13 -76 25 -140 27 -142 5 -4 352 26 358 31 4 4 -65 1779 -75
1927 l-7 87 -2658 0 -2659 0 0 3628 0 3627 202 -2 c1066 -12 1874 -102 2374
-263 645 -209 1126 -556 1459 -1055 305 -457 539 -1133 690 -1995 47 -273 41
-251 68 -246 12 3 118 13 235 22 l212 17 0 66 c0 36 -36 944 -80 2016 -44
1073 -80 1974 -80 2003 l0 52 -6155 0 c-4180 0 -6155 -3 -6155 -10z m9100
-10772 c0 -1567 -4 -2522 -10 -2608 -23 -303 -74 -469 -182 -589 -36 -40 -40
-40 -228 -15 -414 54 -687 184 -930 441 -269 284 -407 638 -469 1198 -43 384
-46 517 -46 1760 l0 1190 48 140 c161 473 381 724 727 829 212 64 406 90 885
119 28 2 85 4 128 5 l77 2 0 -2472z"/>
</g>
</svg>
